Patient4_TMGait_0pt8_01_right_24_EMG.mot
version=1
nRows=40
nColumns=33
inDegrees=no
endheader
time	1LAddLong	2LGlutMax	3LGlutMed	4LIliopsoas	5LSemiMemb	6LBicFemLong	7LRecFem	8LVastMed	9LVastLat	10LGasMed	11LTibAnt	12lTibPost	13LPeroneusLong	14LSol	15LExtDigLong	16LFlexDigLong	17RAddLong	18RGlutMax	19RGlutMed	20RIliopsoas	21RSemiMemb	22RBicFemLong	23RRecFem	24RVastMed	25RVastLat	26RGasMed	27RTibAnt	28RTibPost	29RPeroneusLong	30RSol	31RExtDigLong	32RFlexDigLong
27.192	-0.022888	-0.63492	-0.39307	0.011902	0.010986	0.010529	0.31555	-0.006104	0.052185	-0.083618	-0.079041	-0.007629	-0.037384	-0.075836	0.159	0.039825	-0.032349	0.009155	-0.081329	-0.00824	-0.21545	0.17822	0.075378	-0.12314	-0.20126	-0.033569	-0.55344	-0.091858	-0.24414	-1.8185	0.007172	-0.030518
27.193	-0.018616	-0.64285	-0.3862	0.007172	0.00946	-0.003662	0.36697	0.001373	0.037384	-0.089111	-0.00885	-0.008392	-0.09201	-0.092316	0.31006	0.034637	-0.033417	-0.082245	0.46432	-0.05188	0.13947	0.20279	0.19348	-0.089417	-0.10284	-0.047455	-0.79971	-0.040741	0.47165	-1.3898	-0.000916	-0.012054
27.194	-0.018463	-0.62805	-0.25253	0.010529	0	0.010071	0.36514	0.015564	0.010834	-0.09491	-0.012512	0.003052	-0.17746	-0.048523	1.0126	0.021973	-0.027618	-0.17059	-0.055542	0.010223	0.027618	0.28397	0.30884	0.019379	-0.017395	-0.027161	-0.30991	0.13641	0.354	0.5011	0.003357	-0.003815
27.195	-0.015106	-0.6279	-0.17731	0.016632	0.008087	0.001678	0.25345	0.020599	-0.021362	-0.093231	-0.059967	0.006714	-0.11566	0.036316	1.2579	0.030365	-0.014496	-0.1796	-0.002899	0.026093	0.014038	0.31036	0.45319	0.066681	0.029297	-0.10452	0.77698	0.25955	0.12756	1.6089	0.000153	-0.018005
27.196	-0.009613	-0.58441	-0.12772	0.010681	0.002747	-0.00824	0.071106	0.02533	-0.03891	-0.12482	0.078735	0.006409	-0.002594	0.068817	-0.036163	0.026855	-0.037994	-0.23941	0.3035	0.012512	0.14267	0.26703	0.38956	-0.030365	0.052032	-0.066071	1.6389	-0.3685	0.23483	1.0469	-0.003662	-0.012054
27.197	-0.016022	-0.56717	-0.11658	0.005646	0.01358	0.001831	0.056305	0.031433	-0.032806	-0.13489	0.078583	0.021973	-0.022583	0.099182	-0.401	0.014038	-0.036926	-0.34515	0.2626	-0.025635	0.21683	0.25864	0.57175	-0.000763	0.051422	-0.023804	1.8806	-0.015411	0.2005	1.012	0.000458	-0.020142
27.198	-0.022736	-0.57388	-0.091248	-0.011902	0.005646	-0.006714	-0.046387	0.030823	-0.044403	-0.10559	-0.11261	0.00824	-0.048065	0.071411	-0.68298	0.010986	-0.021667	-0.43839	-0.2652	-0.012817	0.23392	0.16953	0.77499	-0.016022	-0.044098	0.048065	0.66467	0.15518	0.14069	0.55634	0.001526	-0.020599
27.199	-0.025177	-0.5545	-0.080719	-0.013428	0.003357	-0.00946	-0.097351	0.031891	-0.051575	-0.11398	-0.39475	0.007172	-0.10666	0.11719	-0.23651	0.005188	-0.003052	-0.35751	-0.50446	-0.066071	0.0177	0.070496	0.93475	0.027008	-0.11978	0.044556	-0.73029	0.084076	0.058746	-0.17685	-0.001526	-0.015106
27.2	-0.027161	-0.50629	-0.082397	-0.023499	0.002594	-0.000916	-0.016174	0.031433	-0.033264	-0.15839	0.04364	0.009613	0.023193	0.10162	-0.15457	0.013733	-0.031891	-0.22369	-0.54657	-0.045471	-0.20874	0.18295	0.91431	0.21378	-0.1474	0.010834	-0.73135	0.17288	0.092163	-0.21912	-0.000916	-0.016785
27.201	-0.03479	-0.47348	-0.11856	-0.01709	0.00885	0.001373	-0.014191	0.024109	-0.042572	-0.14618	0.17563	0.008545	0.055389	-0.00061	0.23132	0.006561	-0.079956	-0.096741	-0.52887	-0.071716	0.014954	0.25085	0.60867	0.15503	-0.14862	0.012512	-0.83038	0.10269	0.25665	0.34805	-0.000916	-0.022278
27.202	-0.025787	-0.3949	-0.11322	-0.015106	0.00351	-0.018921	0.10681	0.024109	-0.042419	-0.092621	0.37018	0.007477	-0.12863	-0.001221	-0.23666	-0.012817	-0.026703	-0.04776	-0.65948	-0.10086	0.10635	0.078583	0.42801	-0.099792	-0.23926	0.014191	-1.2942	0.11078	0.19959	0.17014	0.003052	-0.019836
27.203	-0.027008	-0.35812	-0.11581	-0.010681	0.006866	-0.022125	0.16541	0.010071	-0.041351	-0.081329	0.48737	0.005951	-0.18143	0.060425	-0.17639	-0.01709	0.032654	0.029907	-0.68268	-0.13657	0.082397	-0.20721	0.55893	-0.40665	-0.21896	-0.000458	-1.5971	-0.2153	0.24139	0.31265	-0.000305	-0.003357
27.204	-0.013123	-0.31326	-0.16022	-0.000916	0.003815	-0.032959	0.14511	-0.005188	-0.019531	-0.079651	0.25345	0.007629	-0.088501	0.069733	-0.29907	-0.03006	0.10025	0.10361	-0.13199	-0.097198	-0.010986	-0.43579	0.80841	-0.49301	-0.1619	-0.02533	-1.4258	-0.24872	0.23697	0.16769	0.003204	0.00412
27.205	-0.019531	-0.2861	-0.16434	0.004272	0.006866	-0.036621	0.053864	0.00824	-0.003662	-0.050659	-0.32257	0.01236	-0.13412	0.041656	0.46066	-0.041199	0.15152	0.087585	-0.35019	-0.087128	-0.084686	-0.59784	0.86029	-0.32547	-0.031586	-0.059204	-0.62271	0.17456	0.35248	-0.016937	0.010834	0.001831
27.206	-0.00946	-0.22903	-0.14648	0.002289	0.005798	-0.020905	-0.15717	0.006561	-0.021667	-0.062103	-0.19379	0.004425	-0.11108	-0.031586	-0.42633	-0.020752	0.14084	0.002747	-0.73013	0.001831	-0.26871	-0.36316	0.84671	-0.061493	0.028229	-0.066833	-0.47348	0.041351	0.34088	0.21027	0.002594	0.00061
27.207	-0.008698	-0.16922	-0.18723	-0.011902	0.003815	-0.030823	-0.15793	0.018005	-0.010071	-0.032654	-0.20523	-0.025482	-0.063782	0.02243	-0.46204	-0.027313	0.013885	-0.057983	-0.96786	0.040283	-0.56976	-0.16937	0.74631	0.071106	0.049896	-0.077667	-0.044098	-0.067902	0.13001	0.34622	0.003204	-0.001678
27.208	-0.006561	-0.015411	-0.13977	-0.024414	0.007477	-0.050812	-0.055847	0.018768	0.002289	0.00061	-0.1239	0.006256	-0.097961	0.049438	-0.54413	-0.039825	-0.15472	0.042572	-0.74265	0.033264	-0.017395	-0.25772	0.51971	0.26764	0.072479	-0.066986	0.41184	-0.055695	-0.16525	0.28702	0.001221	-0.003815
27.209	0.000153	0.052795	-0.072174	-0.028381	-0.001678	-0.050201	0.069122	0.016785	0.038452	-0.000305	-0.097046	0.009308	-0.18143	0.097656	-0.00946	-0.033722	-0.18021	0.036163	-0.65308	0.10742	0.21912	-0.16724	0.54764	0.28366	0.047302	0.027924	0.22263	-0.20676	-0.23377	0.088196	-0.000458	-0.007324
27.21	-0.005493	0.061493	-0.055695	-0.016785	0.00351	-0.037079	0.22781	0.016632	0.06424	0.000763	0.097656	0.011597	-0.15945	0.16052	0.19287	-0.024872	-0.096436	-0.066833	-1.0353	0.067139	0.22629	-0.20172	0.58105	0.21027	-0.012054	-0.02655	-0.041199	-0.24368	-0.24078	-0.28992	0.000305	-0.015106
27.211	-0.006866	0.050201	-0.058746	-0.006104	0.006256	-0.048065	0.28549	0.015106	0.05188	-0.0177	0.26245	0.006866	-0.13184	0.21057	0.58701	-0.011292	-0.090179	-0.22232	-1.2833	0.054016	0.19806	-0.15793	0.49805	0.21484	-0.00885	-0.043182	-0.24796	-0.093079	-0.089569	-0.85968	0.002441	-0.022583
27.212	0.001831	0.046997	-0.063171	-0.006409	0.003967	-0.044861	0.29236	0.013123	0.060577	-0.029297	-0.13641	0.008392	-0.045013	0.19241	0.1828	-0.018616	-0.081787	-0.24902	-1.2625	0.063782	-0.23209	-0.053253	0.35202	0.14587	0.000763	0.018921	-0.024109	0.018921	-0.076599	-0.99701	0.00061	-0.028534
27.213	-0.005798	0.0177	-0.065308	-0.009003	0.003662	-0.029449	0.27542	-0.008087	0.061493	-0.057983	-0.26077	0.010223	0.029144	0.16022	0.01709	-0.006866	-0.068665	-0.27374	-1.0757	0.011139	-0.21866	0.1709	0.27756	0.089874	0.009613	-0.008392	0.32867	0.011139	-0.21713	-1.0587	0.001373	-0.029907
27.214	0.004883	-0.017548	-0.050049	-0.008698	0.003967	-0.035706	0.24109	-0.003967	0.073547	-0.044403	0.15976	0.000458	-0.074158	0.078735	-0.045624	0.004883	-0.017395	-0.19547	-1.2476	0.007935	0.17456	0.12955	0.15213	0.094452	0.036469	-0.054474	0.31296	0.022736	-0.32196	-0.45868	0.001678	-0.03067
27.215	0.001373	-0.041962	-0.034637	0.004883	0.001221	-0.065002	0.24033	-0.005493	0.079803	-0.025787	0.14618	0.006104	-0.12695	0.074463	0.25345	-0.008087	-0.019684	-0.092163	-1.5701	-0.06073	0.38711	-0.10559	0.15457	0.14999	0.060883	-0.006714	0.18448	0.04837	-0.34546	0.55039	-0.002289	-0.017395
27.216	0.002441	-0.065155	-0.057373	0.010834	0.008087	-0.04715	0.25314	-0.00351	0.075073	-0.010071	0.001526	0.00824	-0.12375	-0.006714	-0.2684	-0.011292	-0.043335	-0.10727	-1.6991	-0.039978	0.23621	0.058899	0.13062	0.24826	0.084076	-0.00061	0.071411	-0.022125	-0.34317	1.158	0.002441	-0.024719
27.217	0.004883	-0.093231	-0.046692	-0.000153	0.000916	-0.063934	0.23789	-0.001221	0.072021	0.015869	0.003815	0.010834	-0.13596	0.015106	-0.046539	-0.027008	-0.02121	-0.06134	-1.1719	-0.060425	-0.011902	0.26886	0.14648	0.36118	0.054932	0.042419	0.040741	-0.066223	-0.17075	0.80795	-0.000305	-0.019836
27.218	0.005493	-0.10162	-0.023193	0.007477	0.000458	-0.060272	0.22293	0.00351	0.078583	0.027313	-0.088654	0.005646	-0.012512	0.046387	-0.40176	-0.018311	-0.010681	-0.18478	-0.32349	-0.082092	-0.067139	0.075836	0.29556	0.32837	-0.075378	0.051422	0.034943	-0.083466	0.19134	-0.20645	-0.004272	-0.021057
27.219	0.003662	-0.096283	-0.02594	0.007172	0.003357	-0.057068	0.25024	-0.001526	0.10483	0.025482	-0.1709	0.004272	0.021667	0.062103	-0.029449	-0.00351	-0.021362	-0.28961	-0.40054	-0.054932	0.048523	0.002441	0.30716	0.29633	-0.15488	-0.061951	0.050812	0.047913	0.39444	-0.30594	-0.000763	-0.0177
27.22	0.004425	-0.12497	-0.017242	-0.008545	0.004272	-0.054474	0.31372	0.002747	0.084229	0.037842	-0.13428	0.00473	-0.044861	0.06012	0.22232	-0.000305	-0.042572	-0.39673	-0.88455	0.024719	0.20432	-0.033264	0.30182	0.12695	-0.13809	-0.097656	0.018005	0.044098	0.088501	0.76477	0.002747	-0.018616
27.221	0.00412	-0.090027	-0.002899	-0.002899	0.007172	-0.070953	0.37796	0.000916	0.047607	0.059052	-0.054474	0.006409	-0.050507	-0.013733	0.22522	-0.00946	-0.047455	-0.45044	-1.3611	0.026398	0.15243	-0.081635	-0.055237	0.025177	-0.13367	0	0.024872	-0.03479	-0.19424	1.2624	0.001678	-0.016479
27.222	0.006561	-0.12756	-0.011139	-0.00412	0.003357	-0.075226	0.41946	0.006409	0.043793	0.0354	-0.001678	0.004578	-0.030212	0.014954	0.31281	0.006256	-0.053864	-0.49805	-1.293	0.10117	0.12817	-0.087891	-0.55786	-0.21011	-0.049744	0.028992	-0.009918	-0.032654	-0.24353	1.2027	0.001068	-0.00061
27.223	0.004272	-0.029755	-0.036316	0.011292	0.005493	-0.056458	0.39871	0.007172	0.063324	0.025177	-0.001068	0.002747	-0.067749	0.11643	0.29098	-0.005341	-0.022278	-0.64301	-1.1061	0.15243	0.078735	-0.12146	-0.4773	-0.22492	-0.041656	0.059814	-0.10544	0.056305	-0.32028	0.44708	-0.001526	-0.002289
27.224	0.006714	0.00061	-0.016937	0.015717	0.00473	-0.057068	0.47989	0.003967	0.057983	0.066986	-0.055847	0.002899	-0.12314	0.097656	-0.066681	-0.002136	0.005646	-0.85983	-1.1902	0.19562	-0.002136	-0.11856	-0.29022	-0.20493	-0.13794	0.072632	-0.36057	0.050507	-0.18555	-0.93109	-0.000763	-0.010223
27.225	0.016479	0.059052	0.030823	0.004272	0.01236	-0.053558	0.55878	0.003052	0.052338	0.023956	0.056458	0.010834	-0.063629	0.048523	-0.23407	-0.015564	-0.002136	-0.98267	-1.1578	0.1416	-0.000916	-0.084686	-0.4248	-0.012665	-0.081635	0.077209	-0.32928	0.047913	-0.019531	-0.88455	0.001984	-0.00885
27.226	0.014191	0.16403	0.056763	0.002747	0.007782	-0.06073	0.50964	0.003967	0.033417	0.072937	0.12268	0.010223	-0.048523	0.005341	-0.16052	-0.009613	0.007782	-1.0751	-0.83191	0.028076	-0.003662	-0.12116	-0.43427	-0.097198	-0.034943	0.081329	0.030823	-0.007935	0.090179	-0.79376	0.003662	-0.010376
27.227	0.01709	0.15198	0.042572	-0.01709	0.005188	-0.062103	0.4068	0.007172	0.024719	0.097961	0.13855	0.003815	-0.10391	-0.031433	0.034485	-0.025024	0.018768	-1.1386	-0.27084	-0.063477	-0.018311	-0.17654	-0.28595	-0.080414	-0.004578	0.057983	0.38925	-0.048676	0.55847	-0.74753	0.002441	-0.003967
27.228	0.018768	0.12146	0.03418	-0.023651	0.006256	-0.053558	0.31845	0.014191	0.028381	0.053253	-0.21454	0.006866	-0.055389	0.083466	0.14954	-0.021057	0.034943	-1.2976	-0.43152	-0.033569	-0.090637	-0.20905	-0.16464	-0.065155	-0.007019	0.019226	0.31189	-0.037689	0.22263	-0.7988	-0.002899	-0.000153
27.229	0.02121	0.086517	-0.007019	-0.02182	0	-0.049286	0.3186	0.019836	0.023193	0.054932	-0.08194	0.010834	-0.073242	0.10223	0.047913	-0.024872	0.033569	-1.4218	-0.78461	0.005646	-0.19119	-0.18463	-0.10712	-0.05722	-0.0354	-0.043488	0.43457	-0.000763	-0.19302	-0.66513	-0.002899	-0.017242
27.23	0.020905	0.036926	-0.027008	-0.00412	-0.005798	-0.05249	0.43259	0.018921	0.010529	0.079956	-0.070496	0.01297	-0.068665	0.036926	0.097351	-0.029449	0.036011	-1.4375	-1.0515	0.00885	-0.29251	-0.13336	-0.063629	-0.071259	-0.066833	-0.078125	0.63797	-0.026398	-0.34103	-0.98938	-0.001526	-0.006409
27.231	0.013885	-0.011597	0.014954	0.011749	0.019684	-0.040131	0.31647	0.022278	0.015564	0.083313	-0.015717	0.008392	-0.023193	0.040436	0.72342	-0.032501	0.05249	-1.5691	-0.73944	-0.11932	-0.35507	-0.072021	-0.050659	-0.060883	-0.082245	-0.02594	1.0068	-0.23911	-0.31891	-1.0809	-0.002747	-0.015106
